2.8Hzlow3min_grf.mot
version=1
nRows=15
nColumns 19
inDegrees=yes
endheader
time	1_ground_force_vx	1_ground_force_vy	1_ground_force_vz	1_ground_force_px	1_ground_force_py	1_ground_force_pz	1_ground_torque_x	1_ground_torque_y	1_ground_torque_z	2_ground_force_vx	2_ground_force_vy	2_ground_force_vz	2_ground_force_px	2_ground_force_py	2_ground_force_pz	2_ground_torque_x	2_ground_torque_y	2_ground_torque_z
            3.751500	            0.140780	            0.895457	            1.379201	           -0.233013	            0.005581	           -0.255695	           -0.191289	            0.047421	           -0.256663	            0.232427	            0.373159	           -1.125060	           -0.232311	            0.006130	           -0.833667	           -0.150180	           -0.028901	           -0.000037
            3.752000	            0.003640	            1.255175	            1.564512	           -0.233013	            0.005581	           -0.255695	           -0.236772	           -0.146917	           -0.225664	            0.419744	            0.374505	           -1.312852	           -0.232311	            0.006130	           -0.833667	           -0.112729	           -0.000273	           -0.037652
            3.752500	            0.369474	            1.256819	            1.196754	           -0.233013	            0.005581	           -0.255695	           -0.221122	           -0.229869	           -0.229219	            0.326688	            0.190186	           -1.360397	           -0.232311	            0.006130	           -0.833667	           -0.187496	           -0.095340	            0.037443
            3.753000	            0.414762	            1.798411	            1.015536	           -0.233013	            0.005581	           -0.255695	           -0.176245	           -0.201873	           -0.283669	            0.141385	           -0.363772	           -1.127648	           -0.232311	            0.006130	           -0.833667	           -0.243979	           -0.066983	           -0.018982
            3.753500	            0.644157	            1.437727	            1.059277	           -0.233013	            0.005581	           -0.255695	           -0.327771	           -0.073033	           -0.122569	            0.326709	            0.190019	           -1.313469	           -0.232311	            0.006130	           -0.833667	           -0.168932	           -0.038421	           -0.000063
            3.754000	            0.414813	            0.897279	            0.965815	           -0.233013	            0.005581	           -0.255695	           -0.267609	            0.010705	           -0.282499	            0.328100	           -0.178780	           -1.173999	           -0.232311	            0.006130	           -0.833667	           -0.281439	           -0.095544	           -0.000217
            3.754500	            0.048621	            1.617092	            1.244953	           -0.233013	            0.005581	           -0.255695	           -0.298452	            0.139626	           -0.222341	            0.138604	            0.373825	           -1.406589	           -0.232311	            0.006130	           -0.833667	           -0.206460	           -0.048077	            0.018769
            3.755000	           -0.180642	            1.256713	            1.198120	           -0.233013	            0.005581	           -0.255695	           -0.183774	            0.010375	           -0.289335	            0.372874	            0.374504	           -1.359760	           -0.232311	            0.006130	           -0.833667	           -0.168941	           -0.029170	            0.056521
            3.755500	           -0.042706	            0.895618	            1.333800	           -0.233013	            0.005581	           -0.255695	           -0.189083	           -0.156423	           -0.171371	            0.234359	           -0.178784	           -1.267815	           -0.232311	            0.006130	           -0.833667	           -0.131360	           -0.047469	           -0.075514
            3.756000	            0.232238	            0.895868	            1.287261	           -0.233013	            0.005581	           -0.255695	           -0.187142	           -0.174704	           -0.178524	            0.188091	           -0.362432	           -1.456165	           -0.232311	            0.006130	           -0.833667	           -0.225458	            0.008639	            0.000130
            3.756500	            0.369342	            1.977882	            1.199846	           -0.233013	            0.005581	           -0.255695	           -0.240223	           -0.202384	           -0.172685	            0.142029	           -0.547753	           -1.175234	           -0.232311	            0.006130	           -0.833667	           -0.150171	           -0.038152	           -0.056622
            3.757000	            0.369084	            0.897074	            1.011785	           -0.233013	            0.005581	           -0.255695	           -0.175511	           -0.054322	           -0.209769	            0.139412	            0.188505	           -1.078749	           -0.232311	            0.006130	           -0.833667	           -0.244209	           -0.010066	           -0.075331
            3.757500	            0.552049	            1.258230	            0.875308	           -0.233013	            0.005581	           -0.255695	           -0.320296	            0.103270	           -0.294918	            0.232406	            0.373327	           -1.171988	           -0.232311	            0.006130	           -0.833667	           -0.187794	           -0.019516	           -0.018838
            3.758000	            0.369099	            1.437674	            1.059959	           -0.233013	            0.005581	           -0.255695	           -0.065350	            0.103080	           -0.265781	            0.142694	           -0.731902	           -1.175891	           -0.232311	            0.006130	           -0.833667	           -0.187642	           -0.048278	            0.094162
            3.758500	            0.139525	            2.159086	            0.971908	           -0.233013	            0.005581	           -0.255695	           -0.249397	            0.010099	           -0.181531	            0.047706	           -0.364278	           -1.080680	           -0.232311	            0.006130	           -0.833667	           -0.187538	           -0.085820	            0.018627
